<svg width="96" height="68" viewBox="0 0 96 68" fill="none" xmlns="http://www.w3.org/2000/svg">
<path d="M32 34L46.6286 39.8514C46.867 39.9468 47.133 39.9468 47.3714 39.8514L75.6286 28.5486C76.2855 28.2858 77 28.7696 77 29.477V51.323C77 51.7319 76.751 52.0996 76.3714 52.2514L47.3714 63.8514C47.133 63.9468 46.867 63.9468 46.6286 63.8514L17.6286 52.2514C17.249 52.0996 17 51.7319 17 51.323V28.677C17 28.2681 16.751 27.9004 16.3714 27.7486L4.32119 22.9285C3.48305 22.5932 3.48305 21.4068 4.32119 21.0715L46.6286 4.14856C46.867 4.05319 47.133 4.05319 47.3714 4.14856L91.3714 21.7486C91.751 21.9004 92 22.2679 92 22.6768C92 28.34 92 34.3671 92 40" stroke="#636363" stroke-width="7" stroke-linecap="round" stroke-linejoin="round"/>
</svg>
