<svg width="507" height="195" viewBox="0 0 507 195" fill="none" xmlns="http://www.w3.org/2000/svg">
<path d="M1.41235 169.839C3.42171 170.544 5.57911 170.72 7.67671 170.352C9.7743 169.983 11.7414 169.082 13.3885 167.734C17.5831 164.221 18.8985 158.436 19.9683 153.077L23.1334 137.227L16.507 141.779C11.7414 145.053 6.86868 148.432 3.5693 153.174C0.269927 157.916 -1.1695 164.39 1.48068 169.521" fill="#E6E6E6"/>
<path d="M2.43569 190.132C1.60166 184.069 0.743544 177.928 1.32997 171.8C1.84967 166.358 3.51376 161.043 6.90161 156.684C8.69987 154.375 10.888 152.396 13.3677 150.838C14.0141 150.431 14.6093 151.453 13.9656 151.858C9.67496 154.564 6.35627 158.559 4.48799 163.267C2.42464 168.503 2.09332 174.211 2.44873 179.774C2.66356 183.137 3.12006 186.479 3.57853 189.817C3.61473 189.968 3.59214 190.127 3.51531 190.262C3.43848 190.397 3.31314 190.497 3.16467 190.544C3.0132 190.584 2.85176 190.564 2.71536 190.487C2.57897 190.409 2.47863 190.281 2.4361 190.131L2.43569 190.132Z" fill="#F2F2F2"/>
<path d="M8.43896 180.403C9.30061 181.71 10.4852 182.774 11.8784 183.492C13.2717 184.209 14.8268 184.557 16.3938 184.501C20.4218 184.31 23.7785 181.506 26.7999 178.844L35.7384 170.969L29.8228 170.687C25.5686 170.483 21.2045 170.293 17.1525 171.603C13.1004 172.914 9.36346 176.063 8.62263 180.247" fill="#E6E6E6"/>
<path d="M0.0779208 193.617C4.09326 186.528 8.75031 178.65 17.0724 176.132C19.3862 175.434 21.8123 175.184 24.2201 175.395C24.9791 175.461 24.7895 176.628 24.0321 176.563C19.9959 176.229 15.9675 177.292 12.6251 179.574C9.48293 181.849 6.81907 184.717 4.78472 188.016C3.48626 189.989 2.32331 192.045 1.16033 194.099C0.788723 194.755 -0.298026 194.281 0.0779208 193.617Z" fill="#F2F2F2"/>
<path d="M368.702 160.573C371.469 161.543 374.44 161.786 377.328 161.279C380.217 160.771 382.926 159.53 385.194 157.674C390.97 152.836 392.781 144.869 394.255 137.49L398.613 115.663L389.488 121.932C382.926 126.44 376.216 131.094 371.672 137.624C367.129 144.154 365.147 153.068 368.796 160.134" fill="#E6E6E6"/>
<path d="M370.111 188.518C368.962 180.169 367.781 171.712 368.588 163.274C369.304 155.78 371.596 148.462 376.261 142.459C378.737 139.279 381.75 136.554 385.165 134.408C386.055 133.847 386.875 135.255 385.988 135.813C380.08 139.539 375.51 145.04 372.937 151.524C370.096 158.734 369.64 166.595 370.129 174.254C370.425 178.886 371.053 183.488 371.685 188.084C371.735 188.292 371.704 188.511 371.598 188.697C371.492 188.883 371.319 189.022 371.115 189.085C370.906 189.141 370.684 189.113 370.496 189.007C370.308 188.9 370.17 188.724 370.112 188.517L370.111 188.518Z" fill="#F2F2F2"/>
<path d="M378.378 175.121C379.564 176.921 381.196 178.386 383.114 179.374C385.033 180.362 387.174 180.841 389.332 180.764C394.879 180.501 399.501 176.64 403.662 172.974L415.971 162.13L407.825 161.741C401.966 161.461 395.957 161.198 390.377 163.003C384.797 164.808 379.651 169.144 378.631 174.907" fill="#E6E6E6"/>
<path d="M366.865 193.317C372.394 183.555 378.807 172.706 390.267 169.239C393.453 168.278 396.794 167.934 400.11 168.225C401.155 168.315 400.894 169.922 399.851 169.832C394.293 169.372 388.746 170.836 384.143 173.979C379.714 176.987 376.265 181.169 373.346 185.604C371.558 188.32 369.957 191.152 368.355 193.98C367.843 194.884 366.347 194.231 366.865 193.317Z" fill="#F2F2F2"/>
<path d="M316.878 13.6923C316.294 13.4389 315.825 12.9804 315.559 12.4041C315.293 11.8279 315.248 11.174 315.433 10.567C315.463 10.474 315.482 10.3777 315.49 10.2802C315.507 10.0021 315.434 9.726 315.281 9.49269C315.128 9.25939 314.904 9.08134 314.642 8.98492C314.38 8.8885 314.094 8.87882 313.826 8.95734C313.558 9.03586 313.323 9.19839 313.155 9.42086C313.097 9.49978 313.049 9.58524 313.011 9.67545C312.757 10.2572 312.298 10.7256 311.72 10.9913C311.143 11.2569 310.487 11.3014 309.879 11.1163C309.786 11.0864 309.689 11.0675 309.591 11.0601C309.313 11.0432 309.036 11.1163 308.802 11.2686C308.568 11.4208 308.39 11.6442 308.293 11.9056C308.197 12.167 308.187 12.4525 308.266 12.7198C308.344 12.9871 308.507 13.222 308.73 13.3897C308.809 13.4474 308.895 13.4956 308.985 13.5332C309.568 13.7866 310.038 14.2451 310.304 14.8213C310.57 15.3976 310.615 16.0515 310.429 16.6584C310.399 16.7515 310.38 16.8477 310.373 16.9452C310.356 17.2233 310.429 17.4995 310.582 17.7328C310.735 17.9661 310.958 18.1441 311.22 18.2405C311.482 18.337 311.769 18.3466 312.036 18.2681C312.304 18.1896 312.54 18.027 312.708 17.8046C312.766 17.7256 312.814 17.6402 312.852 17.55C313.106 16.9682 313.565 16.4999 314.143 16.2342C314.72 15.9685 315.376 15.924 315.984 16.1091C316.077 16.1391 316.174 16.1579 316.271 16.1653C316.55 16.1823 316.827 16.1092 317.061 15.9569C317.295 15.8046 317.473 15.5813 317.57 15.3199C317.666 15.0585 317.676 14.773 317.597 14.5057C317.519 14.2384 317.356 14.0034 317.133 13.8357C317.054 13.7781 316.968 13.7299 316.878 13.6923Z" fill="#CBCBCB"/>
<path d="M366.25 128.399C365.667 128.145 365.197 127.687 364.931 127.111C364.665 126.534 364.62 125.881 364.806 125.274C364.836 125.181 364.854 125.084 364.862 124.987C364.879 124.709 364.806 124.433 364.653 124.199C364.5 123.966 364.276 123.788 364.014 123.691C363.752 123.595 363.466 123.585 363.198 123.664C362.931 123.742 362.695 123.905 362.527 124.127C362.469 124.206 362.421 124.292 362.383 124.382C362.129 124.964 361.67 125.432 361.092 125.698C360.515 125.963 359.859 126.008 359.251 125.823C359.158 125.793 359.061 125.774 358.963 125.767C358.685 125.75 358.408 125.823 358.174 125.975C357.94 126.127 357.762 126.351 357.665 126.612C357.569 126.874 357.559 127.159 357.638 127.426C357.716 127.694 357.879 127.929 358.102 128.096C358.181 128.154 358.267 128.202 358.357 128.24C358.94 128.493 359.41 128.952 359.676 129.528C359.942 130.104 359.987 130.758 359.801 131.365C359.771 131.458 359.753 131.554 359.745 131.652C359.728 131.93 359.801 132.206 359.954 132.439C360.107 132.673 360.331 132.851 360.593 132.947C360.854 133.044 361.141 133.053 361.409 132.975C361.676 132.896 361.912 132.734 362.08 132.511C362.138 132.432 362.186 132.347 362.224 132.257C362.478 131.675 362.937 131.206 363.515 130.941C364.092 130.675 364.748 130.631 365.356 130.816C365.449 130.846 365.546 130.864 365.643 130.872C365.922 130.889 366.199 130.816 366.433 130.663C366.667 130.511 366.845 130.288 366.942 130.026C367.038 129.765 367.048 129.48 366.969 129.212C366.891 128.945 366.728 128.71 366.505 128.542C366.426 128.485 366.34 128.436 366.25 128.399Z" fill="#F1F1F1"/>
<path d="M107.403 61.5443C106.82 61.2909 106.35 60.8325 106.084 60.2562C105.818 59.6799 105.773 59.026 105.959 58.4191C105.989 58.326 106.008 58.2298 106.015 58.1323C106.032 57.8542 105.959 57.578 105.806 57.3447C105.654 57.1114 105.43 56.9334 105.168 56.837C104.906 56.7405 104.62 56.7309 104.352 56.8094C104.084 56.8879 103.848 57.0504 103.68 57.2729C103.623 57.3518 103.574 57.4373 103.536 57.5275C103.283 58.1093 102.823 58.5776 102.245 58.8433C101.668 59.109 101.013 59.1535 100.404 58.9684C100.311 58.9384 100.214 58.9195 100.117 58.9121C99.8381 58.8952 99.5613 58.9683 99.3275 59.1206C99.0937 59.2729 98.9152 59.4963 98.8186 59.7576C98.722 60.019 98.7123 60.3045 98.791 60.5718C98.8696 60.8391 99.0325 61.074 99.2555 61.2418C99.3346 61.2995 99.4203 61.3476 99.5107 61.3853C100.094 61.6386 100.563 62.0971 100.829 62.6734C101.096 63.2497 101.14 63.9035 100.955 64.5105C100.925 64.6035 100.906 64.6998 100.898 64.7973C100.881 65.0754 100.955 65.3515 101.107 65.5848C101.26 65.8181 101.484 65.9962 101.746 66.0926C102.008 66.189 102.294 66.1987 102.562 66.1202C102.83 66.0416 103.065 65.8791 103.233 65.6566C103.291 65.5777 103.339 65.4922 103.377 65.402C103.631 64.8202 104.091 64.3519 104.668 64.0862C105.246 63.8206 105.901 63.776 106.509 63.9612C106.603 63.9911 106.699 64.01 106.797 64.0174C107.076 64.0343 107.352 63.9613 107.586 63.809C107.82 63.6567 107.998 63.4333 108.095 63.1719C108.192 62.9105 108.201 62.625 108.123 62.3577C108.044 62.0904 107.881 61.8555 107.658 61.6878C107.579 61.6301 107.493 61.582 107.403 61.5443Z" fill="#F1F1F1"/>
<path d="M215.389 20.4085C217.726 20.4085 219.62 18.5181 219.62 16.1862C219.62 13.8543 217.726 11.9639 215.389 11.9639C213.051 11.9639 211.157 13.8543 211.157 16.1862C211.157 18.5181 213.051 20.4085 215.389 20.4085Z" fill="#F1F1F1"/>
<path d="M441.085 9.14875C443.422 9.14875 445.317 7.25835 445.317 4.92642C445.317 2.5945 443.422 0.704102 441.085 0.704102C438.748 0.704102 436.853 2.5945 436.853 4.92642C436.853 7.25835 438.748 9.14875 441.085 9.14875Z" fill="#6D597A"/>
<path d="M96.1406 181.343C112.917 181.343 126.516 167.774 126.516 151.036C126.516 134.298 112.917 120.729 96.1406 120.729C79.3647 120.729 65.7651 134.298 65.7651 151.036C65.7651 167.774 79.3647 181.343 96.1406 181.343Z" fill="#2F2E41"/>
<path d="M91.5258 174.821H82.2979V191.317H91.5258V174.821Z" fill="#2F2E41"/>
<path d="M109.982 174.821H100.754V191.317H109.982V174.821Z" fill="#2F2E41"/>
<path d="M89.9879 194.386C94.2349 194.386 97.6779 193.098 97.6779 191.509C97.6779 189.92 94.2349 188.632 89.9879 188.632C85.7408 188.632 82.2979 189.92 82.2979 191.509C82.2979 193.098 85.7408 194.386 89.9879 194.386Z" fill="#2F2E41"/>
<path d="M108.444 194.003C112.691 194.003 116.134 192.714 116.134 191.125C116.134 189.536 112.691 188.248 108.444 188.248C104.197 188.248 100.754 189.536 100.754 191.125C100.754 192.714 104.197 194.003 108.444 194.003Z" fill="#2F2E41"/>
<path d="M128.873 137.791C135.451 131.223 139.109 124.227 137.042 122.167C134.975 120.106 127.967 123.761 121.389 130.33C114.81 136.898 111.153 143.894 113.22 145.954C115.286 148.015 122.295 144.36 128.873 137.791Z" fill="#2F2E41"/>
<path d="M71.6572 148.066C73.7239 146.006 70.0665 139.01 63.4882 132.442C56.9099 125.873 49.9016 122.218 47.8349 124.279C45.7682 126.339 49.4256 133.335 56.0039 139.903C62.5823 146.472 69.5905 150.127 71.6572 148.066Z" fill="#2F2E41"/>
<path d="M94.862 157.099C100.595 157.099 105.243 152.462 105.243 146.741C105.243 141.02 100.595 136.383 94.862 136.383C89.1284 136.383 84.4805 141.02 84.4805 146.741C84.4805 152.462 89.1284 157.099 94.862 157.099Z" fill="white"/>
<path d="M94.8624 150.194C96.7736 150.194 98.3229 148.648 98.3229 146.741C98.3229 144.834 96.7736 143.288 94.8624 143.288C92.9512 143.288 91.4019 144.834 91.4019 146.741C91.4019 148.648 92.9512 150.194 94.8624 150.194Z" fill="#3F3D56"/>
<path d="M103.103 165.897C103.424 167.655 103.032 169.468 102.013 170.937C100.994 172.406 99.4317 173.411 97.67 173.731C95.9084 174.051 94.0915 173.66 92.6191 172.643C91.1466 171.626 90.1392 170.068 89.8185 168.31L89.8162 168.297C89.1519 164.636 91.9888 163.341 95.6579 162.678C99.327 162.015 102.439 162.236 103.103 165.897Z" fill="white"/>
<path d="M125.925 182.843C125.241 182.844 124.586 183.115 124.102 183.598C123.619 184.08 123.347 184.734 123.346 185.416V190.791C123.347 191.473 123.619 192.127 124.102 192.609C124.586 193.092 125.241 193.363 125.925 193.364H167.418C168.101 193.363 168.757 193.092 169.24 192.609C169.724 192.127 169.996 191.473 169.997 190.791V185.416C169.996 184.734 169.724 184.08 169.24 183.598C168.757 183.115 168.101 182.844 167.418 182.843H125.925Z" fill="#E5E5E5"/>
<path d="M149.788 179.265C149.531 179.117 149.225 179.077 148.939 179.153C148.652 179.23 148.408 179.417 148.26 179.673L146.718 182.338L145.207 179.358C145.073 179.094 144.839 178.894 144.558 178.802C144.276 178.709 143.969 178.733 143.704 178.866C143.44 179 143.239 179.233 143.147 179.514C143.054 179.795 143.077 180.102 143.211 180.366L144.387 182.685H143.956V193.524H149.708V182.685H149.1L150.197 180.789C150.345 180.533 150.385 180.228 150.309 179.942C150.232 179.656 150.044 179.413 149.788 179.265Z" fill="#6D597A"/>
<path d="M95.3584 131.156C89.9613 131.151 84.5959 130.333 79.4433 128.73C79.0854 128.615 78.7731 128.39 78.5511 128.087C78.3291 127.784 78.2089 127.418 78.2075 127.043V114.707C78.2081 114.24 78.394 113.793 78.7246 113.463C79.0551 113.133 79.5033 112.948 79.9708 112.947H111.004C111.472 112.948 111.92 113.133 112.25 113.463C112.581 113.793 112.767 114.24 112.767 114.707V127.036C112.768 127.414 112.646 127.783 112.42 128.087C112.194 128.391 111.876 128.614 111.513 128.724C106.277 130.321 100.834 131.14 95.3584 131.156Z" fill="#6D597A"/>
<path opacity="0.2" d="M112.415 114.706V116.768L95.6213 122.644C95.3074 122.752 94.9655 122.747 94.6549 122.63L78.5601 116.599V114.706C78.5611 114.333 78.7101 113.976 78.9744 113.712C79.2387 113.449 79.5969 113.3 79.9707 113.299H111.004C111.378 113.3 111.736 113.449 112 113.712C112.265 113.976 112.413 114.333 112.415 114.706Z" fill="black"/>
<path d="M95.1516 120.26C94.94 120.261 94.7301 120.223 94.5319 120.149L70.4803 111.138C70.1402 111.01 69.8479 110.781 69.6433 110.482C69.4387 110.182 69.3317 109.827 69.3371 109.465C69.3425 109.102 69.4599 108.751 69.6733 108.457C69.8867 108.164 70.1857 107.944 70.5294 107.826L93.1593 100.102C93.5249 99.9782 93.9209 99.9765 94.2875 100.097L119.544 108.497C119.893 108.613 120.197 108.835 120.413 109.132C120.629 109.429 120.747 109.786 120.75 110.153C120.753 110.52 120.641 110.878 120.429 111.178C120.217 111.479 119.917 111.705 119.57 111.827L95.7346 120.162C95.5472 120.227 95.3501 120.261 95.1516 120.26Z" fill="#6D597A"/>
<path d="M73.2702 119.633H72.5649V109.429H94.0767V110.133H73.2702V119.633Z" fill="#3F3D56"/>
<path d="M72.9174 121.744C73.6965 121.744 74.328 121.114 74.328 120.337C74.328 119.559 73.6965 118.929 72.9174 118.929C72.1384 118.929 71.5068 119.559 71.5068 120.337C71.5068 121.114 72.1384 121.744 72.9174 121.744Z" fill="#3F3D56"/>
<path d="M271.761 181.343C288.537 181.343 302.137 167.774 302.137 151.036C302.137 134.298 288.537 120.729 271.761 120.729C254.985 120.729 241.386 134.298 241.386 151.036C241.386 167.774 254.985 181.343 271.761 181.343Z" fill="#2F2E41"/>
<path d="M267.146 174.821H257.918V191.317H267.146V174.821Z" fill="#2F2E41"/>
<path d="M285.603 174.821H276.375V191.317H285.603V174.821Z" fill="#2F2E41"/>
<path d="M265.608 194.386C269.856 194.386 273.298 193.098 273.298 191.509C273.298 189.92 269.856 188.632 265.608 188.632C261.361 188.632 257.918 189.92 257.918 191.509C257.918 193.098 261.361 194.386 265.608 194.386Z" fill="#2F2E41"/>
<path d="M284.065 194.003C288.312 194.003 291.755 192.714 291.755 191.125C291.755 189.536 288.312 188.248 284.065 188.248C279.817 188.248 276.375 189.536 276.375 191.125C276.375 192.714 279.817 194.003 284.065 194.003Z" fill="#2F2E41"/>
<path d="M304.493 137.791C311.071 131.223 314.729 124.227 312.662 122.167C310.595 120.106 303.587 123.761 297.009 130.33C290.43 136.898 286.773 143.894 288.84 145.954C290.907 148.015 297.915 144.36 304.493 137.791Z" fill="#2F2E41"/>
<path d="M244.648 165.924C249.956 158.296 252.314 150.765 249.914 149.102C247.514 147.44 241.266 152.275 235.957 159.903C230.649 167.53 228.292 175.061 230.692 176.724C233.091 178.387 239.34 173.551 244.648 165.924Z" fill="#2F2E41"/>
<path d="M270.482 157.099C276.216 157.099 280.864 152.462 280.864 146.741C280.864 141.02 276.216 136.383 270.482 136.383C264.749 136.383 260.101 141.02 260.101 146.741C260.101 152.462 264.749 157.099 270.482 157.099Z" fill="white"/>
<path d="M274.008 146.675C275.92 146.675 277.469 145.129 277.469 143.222C277.469 141.315 275.92 139.769 274.008 139.769C272.097 139.769 270.548 141.315 270.548 143.222C270.548 145.129 272.097 146.675 274.008 146.675Z" fill="#3F3D56"/>
<path d="M282.929 165.897C283.948 169.557 280.238 173.065 274.644 173.731C269.049 174.397 263.688 171.97 262.67 168.31L262.666 168.297C261.653 164.636 265.98 163.341 271.575 162.678C277.171 162.015 281.916 162.236 282.929 165.897Z" fill="white"/>
<path d="M261.132 133.198C256.123 135.202 250.839 136.441 245.459 136.872C245.084 136.898 244.71 136.805 244.391 136.607C244.071 136.408 243.823 136.114 243.682 135.766L239.069 124.321C238.895 123.888 238.9 123.403 239.084 122.974C239.267 122.545 239.614 122.206 240.047 122.032L268.84 110.48C269.274 110.307 269.759 110.312 270.189 110.495C270.619 110.678 270.959 111.024 271.134 111.456L275.744 122.895C275.885 123.247 275.91 123.634 275.814 124C275.718 124.366 275.507 124.692 275.211 124.929C270.95 128.359 266.206 131.145 261.132 133.198Z" fill="#6D597A"/>
<path opacity="0.2" d="M270.807 111.588L271.578 113.501L258.195 125.204C257.944 125.421 257.625 125.543 257.293 125.55L240.105 125.946L239.397 124.189C239.259 123.843 239.263 123.456 239.41 123.113C239.556 122.77 239.833 122.499 240.18 122.358L268.972 110.807C269.32 110.669 269.707 110.673 270.051 110.82C270.395 110.966 270.667 111.242 270.807 111.588Z" fill="black"/>
<path d="M256.866 123.166C256.67 123.245 256.461 123.288 256.25 123.293L230.565 123.886C230.202 123.894 229.845 123.79 229.543 123.589C229.242 123.387 229.01 123.097 228.879 122.759C228.748 122.421 228.726 122.051 228.814 121.699C228.902 121.347 229.097 121.032 229.372 120.795L247.48 105.205C247.773 104.954 248.14 104.805 248.525 104.78L275.1 103.173C275.467 103.15 275.832 103.243 276.143 103.438C276.455 103.633 276.698 103.92 276.837 104.26C276.977 104.599 277.007 104.974 276.923 105.331C276.839 105.688 276.645 106.01 276.368 106.252L257.37 122.858C257.221 122.988 257.051 123.093 256.866 123.166Z" fill="#6D597A"/>
<path d="M236.33 130.729L235.676 130.991L231.861 121.524L251.819 113.517L252.083 114.17L232.778 121.915L236.33 130.729Z" fill="#3F3D56"/>
<path d="M236.266 132.92C237.045 132.92 237.677 132.29 237.677 131.512C237.677 130.735 237.045 130.105 236.266 130.105C235.487 130.105 234.855 130.735 234.855 131.512C234.855 132.29 235.487 132.92 236.266 132.92Z" fill="#3F3D56"/>
<path d="M387.4 79.4287C382.821 76.5778 378.7 73.0541 375.174 68.9764C374.932 68.6897 374.786 68.3338 374.758 67.9596C374.73 67.5853 374.821 67.2118 375.019 66.8924L381.554 56.42C381.802 56.0243 382.196 55.7428 382.652 55.6371C383.107 55.5314 383.586 55.6103 383.983 55.8564L410.327 72.222C410.724 72.469 411.006 72.8629 411.112 73.3172C411.218 73.7715 411.139 74.2491 410.892 74.6454L404.361 85.1117C404.161 85.4331 403.862 85.6817 403.509 85.8207C403.156 85.9597 402.768 85.9817 402.401 85.8835C397.111 84.4772 392.056 82.3024 387.4 79.4287Z" fill="#6D597A"/>
<path opacity="0.2" d="M410.593 74.4593L409.5 76.2097L392.132 72.3418C391.808 72.268 391.52 72.0835 391.319 71.8203L380.851 58.2128L381.853 56.6059C382.052 56.2898 382.368 56.065 382.732 55.9805C383.096 55.8961 383.479 55.9588 383.796 56.155L410.141 72.5206C410.458 72.7187 410.683 73.0337 410.768 73.397C410.852 73.7602 410.789 74.1421 410.593 74.4593Z" fill="black"/>
<path d="M392.997 70.0699C392.817 69.9584 392.659 69.8156 392.53 69.6483L376.886 49.3151C376.664 49.0275 376.538 48.6789 376.523 48.3168C376.507 47.9546 376.605 47.5967 376.801 47.2919C376.998 46.9871 377.284 46.7503 377.621 46.6138C377.957 46.4774 378.328 46.4479 378.682 46.5296L401.984 51.9064C402.36 51.9943 402.697 52.2017 402.944 52.4972L419.935 72.9478C420.17 73.2303 420.31 73.5789 420.336 73.9449C420.363 74.3109 420.274 74.6759 420.082 74.9889C419.89 75.3018 419.604 75.5471 419.266 75.6903C418.927 75.8335 418.552 75.8675 418.193 75.7875L393.544 70.2937C393.35 70.2504 393.165 70.1747 392.997 70.0699Z" fill="#6D597A"/>
<path d="M374.754 57.9987L374.155 57.6264L379.56 48.9644L397.822 60.309L397.449 60.9058L379.786 49.9334L374.754 57.9987Z" fill="#3F3D56"/>
<path d="M374.082 59.8173C374.861 59.8173 375.492 59.1872 375.492 58.4099C375.492 57.6326 374.861 57.0024 374.082 57.0024C373.302 57.0024 372.671 57.6326 372.671 58.4099C372.671 59.1872 373.302 59.8173 374.082 59.8173Z" fill="#3F3D56"/>
<path d="M460.886 146.86C477.662 146.86 491.261 133.291 491.261 116.553C491.261 99.8147 477.662 86.2456 460.886 86.2456C444.11 86.2456 430.51 99.8147 430.51 116.553C430.51 133.291 444.11 146.86 460.886 146.86Z" fill="#2F2E41"/>
<path d="M481.943 132.268L474.069 137.069L482.691 151.145L490.565 146.344L481.943 132.268Z" fill="#2F2E41"/>
<path d="M466.196 141.87L458.322 146.671L466.944 160.747L474.818 155.946L466.196 141.87Z" fill="#2F2E41"/>
<path d="M485.608 152.964C489.232 150.754 491.497 147.863 490.666 146.508C489.836 145.152 486.225 145.844 482.601 148.054C478.977 150.263 476.712 153.154 477.543 154.51C478.373 155.866 481.984 155.174 485.608 152.964Z" fill="#2F2E41"/>
<path d="M469.66 162.239C473.283 160.029 475.548 157.138 474.717 155.782C473.887 154.426 470.276 155.119 466.652 157.328C463.028 159.538 460.764 162.429 461.594 163.785C462.425 165.141 466.036 164.448 469.66 162.239Z" fill="#2F2E41"/>
<path d="M443.807 111.472C445.873 109.412 442.216 102.417 435.638 95.8479C429.059 89.2792 422.051 85.6246 419.984 87.6851C417.918 89.7456 421.575 96.741 428.153 103.31C434.732 109.878 441.74 113.533 443.807 111.472Z" fill="#2F2E41"/>
<path d="M501.955 142.242C504.354 140.579 501.997 133.048 496.689 125.421C491.38 117.793 485.132 112.958 482.732 114.62C480.332 116.283 482.69 123.814 487.998 131.442C493.306 139.069 499.555 143.904 501.955 142.242Z" fill="#2F2E41"/>
<path d="M451.584 118.394C457.318 118.394 461.966 113.756 461.966 108.035C461.966 102.315 457.318 97.6772 451.584 97.6772C445.851 97.6772 441.203 102.315 441.203 108.035C441.203 113.756 445.851 118.394 451.584 118.394Z" fill="white"/>
<path d="M448.058 107.969C449.969 107.969 451.518 106.424 451.518 104.517C451.518 102.61 449.969 101.064 448.058 101.064C446.146 101.064 444.597 102.61 444.597 104.517C444.597 106.424 446.146 107.969 448.058 107.969Z" fill="#3F3D56"/>
<path d="M438.215 125.314C436.247 128.532 438.87 132.886 444.074 135.038C449.278 137.191 455.093 136.327 457.061 133.108L457.068 133.097C459.032 129.877 455.218 127.468 450.012 125.318C444.806 123.169 440.179 122.094 438.215 125.314Z" fill="white"/>
<path d="M450.693 78.4984C453.406 67.5999 465.378 61.1863 477.435 64.1733C489.491 67.1603 497.066 78.4168 494.354 89.3154C491.642 100.214 482.643 100.249 470.587 97.262C458.53 94.275 447.981 89.3969 450.693 78.4984Z" fill="#E6E6E6"/>
<path d="M1.41235 169.839C3.42171 170.544 5.57911 170.72 7.67671 170.352C9.7743 169.983 11.7414 169.082 13.3885 167.734C17.5831 164.221 18.8985 158.436 19.9683 153.077L23.1334 137.227L16.507 141.779C11.7414 145.053 6.86868 148.432 3.5693 153.174C0.269927 157.916 -1.1695 164.39 1.48068 169.521" fill="#E6E6E6"/>
<path d="M2.43569 190.132C1.60166 184.069 0.743544 177.928 1.32997 171.8C1.84967 166.358 3.51376 161.043 6.90161 156.684C8.69987 154.375 10.888 152.396 13.3677 150.838C14.0141 150.431 14.6093 151.453 13.9656 151.858C9.67496 154.564 6.35627 158.559 4.48799 163.267C2.42464 168.503 2.09332 174.211 2.44873 179.774C2.66356 183.137 3.12006 186.479 3.57853 189.817C3.61473 189.968 3.59214 190.127 3.51531 190.262C3.43848 190.397 3.31314 190.497 3.16467 190.544C3.0132 190.584 2.85176 190.564 2.71536 190.487C2.57897 190.409 2.47863 190.281 2.4361 190.131L2.43569 190.132Z" fill="#F2F2F2"/>
<path d="M8.43896 180.403C9.30061 181.71 10.4852 182.774 11.8784 183.492C13.2717 184.209 14.8268 184.557 16.3938 184.501C20.4218 184.31 23.7785 181.506 26.7999 178.844L35.7384 170.969L29.8228 170.687C25.5686 170.483 21.2045 170.293 17.1525 171.603C13.1004 172.914 9.36346 176.063 8.62263 180.247" fill="#E6E6E6"/>
<path d="M0.0779208 193.617C4.09326 186.528 8.75031 178.65 17.0724 176.132C19.3862 175.434 21.8123 175.184 24.2201 175.395C24.9791 175.461 24.7895 176.628 24.0321 176.563C19.9959 176.229 15.9675 177.292 12.6251 179.574C9.48293 181.849 6.81907 184.717 4.78472 188.016C3.48626 189.989 2.32331 192.045 1.16033 194.099C0.788723 194.755 -0.298026 194.281 0.0779208 193.617Z" fill="#F2F2F2"/>
<path d="M368.702 160.573C371.469 161.543 374.44 161.786 377.328 161.279C380.217 160.771 382.926 159.53 385.194 157.674C390.97 152.836 392.781 144.869 394.255 137.49L398.613 115.663L389.488 121.932C382.926 126.44 376.216 131.094 371.672 137.624C367.129 144.154 365.147 153.068 368.796 160.134" fill="#E6E6E6"/>
<path d="M370.111 188.518C368.962 180.169 367.781 171.712 368.588 163.274C369.304 155.78 371.596 148.462 376.261 142.459C378.737 139.279 381.75 136.554 385.165 134.408C386.055 133.847 386.875 135.255 385.988 135.813C380.08 139.539 375.51 145.04 372.937 151.524C370.096 158.734 369.64 166.595 370.129 174.254C370.425 178.886 371.053 183.488 371.685 188.084C371.735 188.292 371.704 188.511 371.598 188.697C371.492 188.883 371.319 189.022 371.115 189.085C370.906 189.141 370.684 189.113 370.496 189.007C370.308 188.9 370.17 188.724 370.112 188.517L370.111 188.518Z" fill="#F2F2F2"/>
<path d="M378.378 175.121C379.564 176.921 381.196 178.386 383.114 179.374C385.033 180.362 387.174 180.841 389.332 180.764C394.879 180.501 399.501 176.64 403.662 172.974L415.971 162.13L407.825 161.741C401.966 161.461 395.957 161.198 390.377 163.003C384.797 164.808 379.651 169.144 378.631 174.907" fill="#E6E6E6"/>
<path d="M366.865 193.317C372.394 183.555 378.807 172.706 390.267 169.239C393.453 168.278 396.794 167.934 400.11 168.225C401.155 168.315 400.894 169.922 399.851 169.832C394.293 169.372 388.746 170.836 384.143 173.979C379.714 176.987 376.265 181.169 373.346 185.604C371.558 188.32 369.957 191.152 368.355 193.98C367.843 194.884 366.347 194.231 366.865 193.317Z" fill="#F2F2F2"/>
<path d="M366.25 128.399C365.667 128.145 365.197 127.687 364.931 127.111C364.665 126.534 364.62 125.881 364.806 125.274C364.836 125.181 364.854 125.084 364.862 124.987C364.879 124.709 364.806 124.433 364.653 124.199C364.5 123.966 364.276 123.788 364.014 123.691C363.752 123.595 363.466 123.585 363.198 123.664C362.931 123.742 362.695 123.905 362.527 124.127C362.469 124.206 362.421 124.292 362.383 124.382C362.129 124.964 361.67 125.432 361.092 125.698C360.515 125.963 359.859 126.008 359.251 125.823C359.158 125.793 359.061 125.774 358.963 125.767C358.685 125.75 358.408 125.823 358.174 125.975C357.94 126.127 357.762 126.351 357.665 126.612C357.569 126.874 357.559 127.159 357.638 127.426C357.716 127.694 357.879 127.929 358.102 128.096C358.181 128.154 358.267 128.202 358.357 128.24C358.94 128.493 359.41 128.952 359.676 129.528C359.942 130.104 359.987 130.758 359.801 131.365C359.771 131.458 359.753 131.554 359.745 131.652C359.728 131.93 359.801 132.206 359.954 132.439C360.107 132.673 360.331 132.851 360.593 132.947C360.854 133.044 361.141 133.053 361.409 132.975C361.676 132.896 361.912 132.734 362.08 132.511C362.138 132.432 362.186 132.347 362.224 132.257C362.478 131.675 362.937 131.206 363.515 130.941C364.092 130.675 364.748 130.631 365.356 130.816C365.449 130.846 365.546 130.864 365.643 130.872C365.922 130.889 366.199 130.816 366.433 130.663C366.667 130.511 366.845 130.288 366.942 130.026C367.038 129.765 367.048 129.48 366.969 129.212C366.891 128.945 366.728 128.71 366.505 128.542C366.426 128.485 366.34 128.436 366.25 128.399Z" fill="#F1F1F1"/>
<path d="M107.403 61.5443C106.82 61.2909 106.35 60.8325 106.084 60.2562C105.818 59.6799 105.773 59.026 105.959 58.4191C105.989 58.326 106.008 58.2298 106.015 58.1323C106.032 57.8542 105.959 57.578 105.806 57.3447C105.654 57.1114 105.43 56.9334 105.168 56.837C104.906 56.7405 104.62 56.7309 104.352 56.8094C104.084 56.8879 103.848 57.0504 103.68 57.2729C103.623 57.3518 103.574 57.4373 103.536 57.5275C103.283 58.1093 102.823 58.5776 102.245 58.8433C101.668 59.109 101.013 59.1535 100.404 58.9684C100.311 58.9384 100.214 58.9195 100.117 58.9121C99.8381 58.8952 99.5613 58.9683 99.3275 59.1206C99.0937 59.2729 98.9152 59.4963 98.8186 59.7576C98.722 60.019 98.7123 60.3045 98.791 60.5718C98.8696 60.8391 99.0325 61.074 99.2555 61.2418C99.3346 61.2995 99.4203 61.3476 99.5107 61.3853C100.094 61.6386 100.563 62.0971 100.829 62.6734C101.096 63.2497 101.14 63.9035 100.955 64.5105C100.925 64.6035 100.906 64.6998 100.898 64.7973C100.881 65.0754 100.955 65.3515 101.107 65.5848C101.26 65.8181 101.484 65.9962 101.746 66.0926C102.008 66.189 102.294 66.1987 102.562 66.1202C102.83 66.0416 103.065 65.8791 103.233 65.6566C103.291 65.5777 103.339 65.4922 103.377 65.402C103.631 64.8202 104.091 64.3519 104.668 64.0862C105.246 63.8206 105.901 63.776 106.509 63.9612C106.603 63.9911 106.699 64.01 106.797 64.0174C107.076 64.0343 107.352 63.9613 107.586 63.809C107.82 63.6567 107.998 63.4333 108.095 63.1719C108.192 62.9105 108.201 62.625 108.123 62.3577C108.044 62.0904 107.881 61.8555 107.658 61.6878C107.579 61.6301 107.493 61.582 107.403 61.5443Z" fill="#F1F1F1"/>
<path d="M96.1406 181.343C112.917 181.343 126.516 167.774 126.516 151.036C126.516 134.298 112.917 120.729 96.1406 120.729C79.3647 120.729 65.7651 134.298 65.7651 151.036C65.7651 167.774 79.3647 181.343 96.1406 181.343Z" fill="#2F2E41"/>
<path d="M91.5258 174.821H82.2979V191.317H91.5258V174.821Z" fill="#2F2E41"/>
<path d="M109.982 174.821H100.754V191.317H109.982V174.821Z" fill="#2F2E41"/>
<path d="M89.9879 194.386C94.2349 194.386 97.6779 193.098 97.6779 191.509C97.6779 189.92 94.2349 188.632 89.9879 188.632C85.7408 188.632 82.2979 189.92 82.2979 191.509C82.2979 193.098 85.7408 194.386 89.9879 194.386Z" fill="#2F2E41"/>
<path d="M108.444 194.003C112.691 194.003 116.134 192.714 116.134 191.125C116.134 189.536 112.691 188.248 108.444 188.248C104.197 188.248 100.754 189.536 100.754 191.125C100.754 192.714 104.197 194.003 108.444 194.003Z" fill="#2F2E41"/>
<path d="M128.873 137.791C135.451 131.223 139.109 124.227 137.042 122.167C134.975 120.106 127.967 123.761 121.389 130.33C114.81 136.898 111.153 143.894 113.22 145.954C115.286 148.015 122.295 144.36 128.873 137.791Z" fill="#2F2E41"/>
<path d="M71.6572 148.066C73.7239 146.006 70.0665 139.01 63.4882 132.442C56.9099 125.873 49.9016 122.218 47.8349 124.279C45.7682 126.339 49.4256 133.335 56.0039 139.903C62.5823 146.472 69.5905 150.127 71.6572 148.066Z" fill="#2F2E41"/>
<path d="M94.862 157.099C100.595 157.099 105.243 152.462 105.243 146.741C105.243 141.02 100.595 136.383 94.862 136.383C89.1284 136.383 84.4805 141.02 84.4805 146.741C84.4805 152.462 89.1284 157.099 94.862 157.099Z" fill="white"/>
<path d="M94.8624 150.194C96.7736 150.194 98.3229 148.648 98.3229 146.741C98.3229 144.834 96.7736 143.288 94.8624 143.288C92.9512 143.288 91.4019 144.834 91.4019 146.741C91.4019 148.648 92.9512 150.194 94.8624 150.194Z" fill="#3F3D56"/>
<path d="M103.103 165.897C103.424 167.655 103.032 169.468 102.013 170.937C100.994 172.406 99.4317 173.411 97.67 173.731C95.9084 174.051 94.0915 173.66 92.6191 172.643C91.1466 171.626 90.1392 170.068 89.8185 168.31L89.8162 168.297C89.1519 164.636 91.9888 163.341 95.6579 162.678C99.327 162.015 102.439 162.236 103.103 165.897Z" fill="white"/>
<path d="M125.925 182.843C125.241 182.844 124.586 183.115 124.102 183.598C123.619 184.08 123.347 184.734 123.346 185.416V190.791C123.347 191.473 123.619 192.127 124.102 192.609C124.586 193.092 125.241 193.363 125.925 193.364H167.418C168.101 193.363 168.757 193.092 169.24 192.609C169.724 192.127 169.996 191.473 169.997 190.791V185.416C169.996 184.734 169.724 184.08 169.24 183.598C168.757 183.115 168.101 182.844 167.418 182.843H125.925Z" fill="#E5E5E5"/>
<path d="M149.788 179.265C149.531 179.117 149.225 179.077 148.939 179.153C148.652 179.23 148.408 179.417 148.26 179.673L146.718 182.338L145.207 179.358C145.073 179.094 144.839 178.894 144.558 178.802C144.276 178.709 143.969 178.733 143.704 178.866C143.44 179 143.239 179.233 143.147 179.514C143.054 179.795 143.077 180.102 143.211 180.366L144.387 182.685H143.956V193.524H149.708V182.685H149.1L150.197 180.789C150.345 180.533 150.385 180.228 150.309 179.942C150.232 179.656 150.044 179.413 149.788 179.265Z" fill="#6D597A"/>
<path d="M95.3584 131.156C89.9613 131.151 84.5959 130.333 79.4433 128.73C79.0854 128.615 78.7731 128.39 78.5511 128.087C78.3291 127.784 78.2089 127.418 78.2075 127.043V114.707C78.2081 114.24 78.394 113.793 78.7246 113.463C79.0551 113.133 79.5033 112.948 79.9708 112.947H111.004C111.472 112.948 111.92 113.133 112.25 113.463C112.581 113.793 112.767 114.24 112.767 114.707V127.036C112.768 127.414 112.646 127.783 112.42 128.087C112.194 128.391 111.876 128.614 111.513 128.724C106.277 130.321 100.834 131.14 95.3584 131.156Z" fill="#6D597A"/>
<path opacity="0.2" d="M112.415 114.706V116.768L95.6213 122.644C95.3074 122.752 94.9655 122.747 94.6549 122.63L78.5601 116.599V114.706C78.5611 114.333 78.7101 113.976 78.9744 113.712C79.2387 113.449 79.5969 113.3 79.9707 113.299H111.004C111.378 113.3 111.736 113.449 112 113.712C112.265 113.976 112.413 114.333 112.415 114.706Z" fill="black"/>
<path d="M95.1516 120.26C94.94 120.261 94.7301 120.223 94.5319 120.149L70.4803 111.138C70.1402 111.01 69.8479 110.781 69.6433 110.482C69.4387 110.182 69.3317 109.827 69.3371 109.465C69.3425 109.102 69.4599 108.751 69.6733 108.457C69.8867 108.164 70.1857 107.944 70.5294 107.826L93.1593 100.102C93.5249 99.9782 93.9209 99.9765 94.2875 100.097L119.544 108.497C119.893 108.613 120.197 108.835 120.413 109.132C120.629 109.429 120.747 109.786 120.75 110.153C120.753 110.52 120.641 110.878 120.429 111.178C120.217 111.479 119.917 111.705 119.57 111.827L95.7346 120.162C95.5472 120.227 95.3501 120.261 95.1516 120.26Z" fill="#6D597A"/>
<path d="M73.2702 119.633H72.5649V109.429H94.0767V110.133H73.2702V119.633Z" fill="#3F3D56"/>
<path d="M72.9174 121.744C73.6965 121.744 74.328 121.114 74.328 120.337C74.328 119.559 73.6965 118.929 72.9174 118.929C72.1384 118.929 71.5068 119.559 71.5068 120.337C71.5068 121.114 72.1384 121.744 72.9174 121.744Z" fill="#3F3D56"/>
<path d="M271.761 181.343C288.537 181.343 302.137 167.774 302.137 151.036C302.137 134.298 288.537 120.729 271.761 120.729C254.985 120.729 241.386 134.298 241.386 151.036C241.386 167.774 254.985 181.343 271.761 181.343Z" fill="#2F2E41"/>
<path d="M267.146 174.821H257.918V191.317H267.146V174.821Z" fill="#2F2E41"/>
<path d="M285.603 174.821H276.375V191.317H285.603V174.821Z" fill="#2F2E41"/>
<path d="M265.608 194.386C269.856 194.386 273.298 193.098 273.298 191.509C273.298 189.92 269.856 188.632 265.608 188.632C261.361 188.632 257.918 189.92 257.918 191.509C257.918 193.098 261.361 194.386 265.608 194.386Z" fill="#2F2E41"/>
<path d="M284.065 194.003C288.312 194.003 291.755 192.714 291.755 191.125C291.755 189.536 288.312 188.248 284.065 188.248C279.817 188.248 276.375 189.536 276.375 191.125C276.375 192.714 279.817 194.003 284.065 194.003Z" fill="#2F2E41"/>
<path d="M304.493 137.791C311.071 131.223 314.729 124.227 312.662 122.167C310.595 120.106 303.587 123.761 297.009 130.33C290.43 136.898 286.773 143.894 288.84 145.954C290.907 148.015 297.915 144.36 304.493 137.791Z" fill="#2F2E41"/>
<path d="M244.648 165.924C249.956 158.296 252.314 150.765 249.914 149.102C247.514 147.44 241.266 152.275 235.957 159.903C230.649 167.53 228.292 175.061 230.692 176.724C233.091 178.387 239.34 173.551 244.648 165.924Z" fill="#2F2E41"/>
<path d="M270.482 157.099C276.216 157.099 280.864 152.462 280.864 146.741C280.864 141.02 276.216 136.383 270.482 136.383C264.749 136.383 260.101 141.02 260.101 146.741C260.101 152.462 264.749 157.099 270.482 157.099Z" fill="white"/>
<path d="M274.008 146.675C275.92 146.675 277.469 145.129 277.469 143.222C277.469 141.315 275.92 139.769 274.008 139.769C272.097 139.769 270.548 141.315 270.548 143.222C270.548 145.129 272.097 146.675 274.008 146.675Z" fill="#3F3D56"/>
<path d="M282.929 165.897C283.948 169.557 280.238 173.065 274.644 173.731C269.049 174.397 263.688 171.97 262.67 168.31L262.666 168.297C261.653 164.636 265.98 163.341 271.575 162.678C277.171 162.015 281.916 162.236 282.929 165.897Z" fill="white"/>
<path d="M261.132 133.198C256.123 135.202 250.839 136.441 245.459 136.872C245.084 136.898 244.71 136.805 244.391 136.607C244.071 136.408 243.823 136.114 243.682 135.766L239.069 124.321C238.895 123.888 238.9 123.403 239.084 122.974C239.267 122.545 239.614 122.206 240.047 122.032L268.84 110.48C269.274 110.307 269.759 110.312 270.189 110.495C270.619 110.678 270.959 111.024 271.134 111.456L275.744 122.895C275.885 123.247 275.91 123.634 275.814 124C275.718 124.366 275.507 124.692 275.211 124.929C270.95 128.359 266.206 131.145 261.132 133.198Z" fill="#6D597A"/>
<path opacity="0.2" d="M270.807 111.588L271.578 113.501L258.195 125.204C257.944 125.421 257.625 125.543 257.293 125.55L240.105 125.946L239.397 124.189C239.259 123.843 239.263 123.456 239.41 123.113C239.556 122.77 239.833 122.499 240.18 122.358L268.972 110.807C269.32 110.669 269.707 110.673 270.051 110.82C270.395 110.966 270.667 111.242 270.807 111.588Z" fill="black"/>
<path d="M256.866 123.166C256.67 123.245 256.461 123.288 256.25 123.293L230.565 123.886C230.202 123.894 229.845 123.79 229.543 123.589C229.242 123.387 229.01 123.097 228.879 122.759C228.748 122.421 228.726 122.051 228.814 121.699C228.902 121.347 229.097 121.032 229.372 120.795L247.48 105.205C247.773 104.954 248.14 104.805 248.525 104.78L275.1 103.173C275.467 103.15 275.832 103.243 276.143 103.438C276.455 103.633 276.698 103.92 276.837 104.26C276.977 104.599 277.007 104.974 276.923 105.331C276.839 105.688 276.645 106.01 276.368 106.252L257.37 122.858C257.221 122.988 257.051 123.093 256.866 123.166Z" fill="#6D597A"/>
<path d="M236.33 130.729L235.676 130.991L231.861 121.524L251.819 113.517L252.083 114.17L232.778 121.915L236.33 130.729Z" fill="#3F3D56"/>
<path d="M236.266 132.92C237.045 132.92 237.677 132.29 237.677 131.512C237.677 130.735 237.045 130.105 236.266 130.105C235.487 130.105 234.855 130.735 234.855 131.512C234.855 132.29 235.487 132.92 236.266 132.92Z" fill="#3F3D56"/>
<path d="M387.4 79.4287C382.821 76.5778 378.7 73.0541 375.174 68.9764C374.932 68.6897 374.786 68.3338 374.758 67.9596C374.73 67.5853 374.821 67.2118 375.019 66.8924L381.554 56.42C381.802 56.0243 382.196 55.7428 382.652 55.6371C383.107 55.5314 383.586 55.6103 383.983 55.8564L410.327 72.222C410.724 72.469 411.006 72.8629 411.112 73.3172C411.218 73.7715 411.139 74.2491 410.892 74.6454L404.361 85.1117C404.161 85.4331 403.862 85.6817 403.509 85.8207C403.156 85.9597 402.768 85.9817 402.401 85.8835C397.111 84.4772 392.056 82.3024 387.4 79.4287Z" fill="#6D597A"/>
<path opacity="0.2" d="M410.593 74.4593L409.5 76.2097L392.132 72.3418C391.808 72.268 391.52 72.0835 391.319 71.8203L380.851 58.2128L381.853 56.6059C382.052 56.2898 382.368 56.065 382.732 55.9805C383.096 55.8961 383.479 55.9588 383.796 56.155L410.141 72.5206C410.458 72.7187 410.683 73.0337 410.768 73.397C410.852 73.7602 410.789 74.1421 410.593 74.4593Z" fill="black"/>
<path d="M392.997 70.0699C392.817 69.9584 392.659 69.8156 392.53 69.6483L376.886 49.3151C376.664 49.0275 376.538 48.6789 376.523 48.3168C376.507 47.9546 376.605 47.5967 376.801 47.2919C376.998 46.9871 377.284 46.7503 377.621 46.6138C377.957 46.4774 378.328 46.4479 378.682 46.5296L401.984 51.9064C402.36 51.9943 402.697 52.2017 402.944 52.4972L419.935 72.9478C420.17 73.2303 420.31 73.5789 420.336 73.9449C420.363 74.3109 420.274 74.6759 420.082 74.9889C419.89 75.3018 419.604 75.5471 419.266 75.6903C418.927 75.8335 418.552 75.8675 418.193 75.7875L393.544 70.2937C393.35 70.2504 393.165 70.1747 392.997 70.0699Z" fill="#6D597A"/>
<path d="M374.754 57.9987L374.155 57.6264L379.56 48.9644L397.822 60.309L397.449 60.9058L379.786 49.9334L374.754 57.9987Z" fill="#3F3D56"/>
<path d="M374.082 59.8173C374.861 59.8173 375.492 59.1872 375.492 58.4099C375.492 57.6326 374.861 57.0024 374.082 57.0024C373.302 57.0024 372.671 57.6326 372.671 58.4099C372.671 59.1872 373.302 59.8173 374.082 59.8173Z" fill="#3F3D56"/>
<path d="M460.886 146.86C477.662 146.86 491.261 133.291 491.261 116.553C491.261 99.8147 477.662 86.2456 460.886 86.2456C444.11 86.2456 430.51 99.8147 430.51 116.553C430.51 133.291 444.11 146.86 460.886 146.86Z" fill="#2F2E41"/>
<path d="M481.943 132.268L474.069 137.069L482.691 151.145L490.565 146.344L481.943 132.268Z" fill="#2F2E41"/>
<path d="M466.196 141.87L458.322 146.671L466.944 160.747L474.818 155.946L466.196 141.87Z" fill="#2F2E41"/>
<path d="M485.608 152.964C489.232 150.754 491.497 147.863 490.666 146.508C489.836 145.152 486.225 145.844 482.601 148.054C478.977 150.263 476.712 153.154 477.543 154.51C478.373 155.866 481.984 155.174 485.608 152.964Z" fill="#2F2E41"/>
<path d="M469.66 162.239C473.283 160.029 475.548 157.138 474.717 155.782C473.887 154.426 470.276 155.119 466.652 157.328C463.028 159.538 460.764 162.429 461.594 163.785C462.425 165.141 466.036 164.448 469.66 162.239Z" fill="#2F2E41"/>
<path d="M443.807 111.472C445.873 109.412 442.216 102.417 435.638 95.8479C429.059 89.2792 422.051 85.6246 419.984 87.6851C417.918 89.7456 421.575 96.741 428.153 103.31C434.732 109.878 441.74 113.533 443.807 111.472Z" fill="#2F2E41"/>
<path d="M501.955 142.242C504.354 140.579 501.997 133.048 496.689 125.421C491.38 117.793 485.132 112.958 482.732 114.62C480.332 116.283 482.69 123.814 487.998 131.442C493.306 139.069 499.555 143.904 501.955 142.242Z" fill="#2F2E41"/>
<path d="M451.584 118.394C457.318 118.394 461.966 113.756 461.966 108.035C461.966 102.315 457.318 97.6772 451.584 97.6772C445.851 97.6772 441.203 102.315 441.203 108.035C441.203 113.756 445.851 118.394 451.584 118.394Z" fill="white"/>
<path d="M448.058 107.969C449.969 107.969 451.518 106.424 451.518 104.517C451.518 102.61 449.969 101.064 448.058 101.064C446.146 101.064 444.597 102.61 444.597 104.517C444.597 106.424 446.146 107.969 448.058 107.969Z" fill="#3F3D56"/>
<path d="M438.215 125.314C436.247 128.532 438.87 132.886 444.074 135.038C449.278 137.191 455.093 136.327 457.061 133.108L457.068 133.097C459.032 129.877 455.218 127.468 450.012 125.318C444.806 123.169 440.179 122.094 438.215 125.314Z" fill="white"/>
<path d="M450.693 78.4984C453.406 67.5999 465.378 61.1863 477.435 64.1733C489.491 67.1603 497.066 78.4168 494.354 89.3154C491.642 100.214 482.643 100.249 470.587 97.262C458.53 94.275 447.981 89.3969 450.693 78.4984Z" fill="#E6E6E6"/>
</svg>
