<?xml version="1.0" encoding="utf-8"?>
<!-- Generator: Adobe Illustrator 23.0.6, SVG Export Plug-In . SVG Version: 6.00 Build 0)  -->
<svg version="1.1" id="Camada_1" xmlns="http://www.w3.org/2000/svg" xmlns:xlink="http://www.w3.org/1999/xlink" x="0px" y="0px"
	 viewBox="0 0 350 280" style="enable-background:new 0 0 350 280;" xml:space="preserve">
<style type="text/css">
	.st0{fill:#E6E6E6;}
	.st1{fill:#B0A3B3;}
	.st2{fill:#FFFFFF;}
	.st3{fill:#F2F2F2;}
</style>
<path class="st0" d="M37,278.7c-0.4-0.5-0.7-1.1-0.8-1.8c-0.1-0.6-0.1-1.3,0-1.9c3.7-15.6,3.7-31.9,0-47.5c-0.2-0.6-0.2-1.3,0-1.9
	c0.1-0.6,0.4-1.2,0.8-1.8c0.4-0.5,0.9-0.9,1.5-1.2c0.6-0.3,1.2-0.4,1.9-0.4h39.9c1,0,2,0.4,2.8,1c0.8,0.7,1.3,1.6,1.5,2.6
	c2.6,16.9,2.6,34.1,0,51c-0.2,1-0.7,1.9-1.5,2.6c-0.8,0.7-1.8,1-2.8,1H40.4c-0.6,0-1.3-0.1-1.9-0.4C38,279.6,37.4,279.2,37,278.7z"
	/>
<path class="st1" d="M91.5,210.1c-2.6-16.9-2.6-34.1,0-51c0.2-1,0.7-1.9,1.5-2.6c0.8-0.7,1.8-1,2.8-1h39.9c0.6,0,1.3,0.1,1.9,0.4
	c0.6,0.3,1.1,0.7,1.5,1.2c0.4,0.5,0.7,1.1,0.8,1.8s0.1,1.3,0,1.9c-3.7,15.6-3.7,31.9,0,47.5c0.2,0.6,0.2,1.3,0,1.9
	c-0.1,0.6-0.4,1.2-0.8,1.8c-0.4,0.5-0.9,0.9-1.5,1.2c-0.6,0.3-1.2,0.4-1.9,0.4H95.7c-1,0-2-0.4-2.8-1
	C92.2,212.1,91.6,211.1,91.5,210.1z"/>
<path class="st1" d="M1.4,195c-0.4-0.5-0.7-1.1-0.8-1.8c-0.1-0.7-0.1-1.3,0-2c3.8-15.9,3.8-32.4,0-48.3c-0.2-0.6-0.2-1.3,0-2
	c0.1-0.7,0.4-1.3,0.8-1.8c0.4-0.5,0.9-0.9,1.5-1.2c0.6-0.3,1.2-0.4,1.9-0.4h40.5c1,0,2,0.4,2.8,1c0.8,0.7,1.3,1.6,1.5,2.6
	c2.6,17.2,2.6,34.6,0,51.8c-0.2,1-0.7,2-1.5,2.6c-0.8,0.7-1.8,1-2.8,1H4.8c-0.7,0-1.3-0.1-1.9-0.4C2.3,196,1.8,195.5,1.4,195z"/>
<path class="st2" d="M37.5,159.4H16.2c-0.8,0-1.6-0.3-2.1-0.9c-0.6-0.6-0.9-1.3-0.9-2.1v-1.3c0-0.8,0.3-1.6,0.9-2.1
	c0.6-0.6,1.3-0.9,2.1-0.9h21.3c0.8,0,1.6,0.3,2.1,0.9c0.6,0.6,0.9,1.3,0.9,2.1v1.3c0,0.8-0.3,1.6-0.9,2.1
	C39.1,159,38.3,159.4,37.5,159.4z"/>
<path class="st2" d="M37.5,171.9H16.2c-0.8,0-1.6-0.3-2.1-0.9c-0.6-0.6-0.9-1.3-0.9-2.1v-1.3c0-0.8,0.3-1.6,0.9-2.1
	c0.6-0.6,1.3-0.9,2.1-0.9h21.3c0.8,0,1.6,0.3,2.1,0.9c0.6,0.6,0.9,1.3,0.9,2.1v1.3c0,0.8-0.3,1.6-0.9,2.1
	C39.1,171.6,38.3,171.9,37.5,171.9z"/>
<path class="st2" d="M72.1,241.6H51.1c-0.8,0-1.6-0.3-2.1-0.9c-0.6-0.6-0.9-1.3-0.9-2.1v-1.2c0-0.8,0.3-1.6,0.9-2.1
	c0.6-0.6,1.3-0.9,2.1-0.9h20.9c0.8,0,1.6,0.3,2.1,0.9c0.6,0.6,0.9,1.3,0.9,2.1v1.2c0,0.8-0.3,1.6-0.9,2.1
	C73.6,241.3,72.9,241.6,72.1,241.6z"/>
<path class="st2" d="M72.1,256.4H51.1c-0.8,0-1.6-0.3-2.1-0.9c-0.6-0.6-0.9-1.3-0.9-2.1v-1.2c0-0.8,0.3-1.6,0.9-2.1
	c0.6-0.6,1.3-0.9,2.1-0.9h20.9c0.8,0,1.6,0.3,2.1,0.9c0.6,0.6,0.9,1.3,0.9,2.1v1.2c0,0.8-0.3,1.6-0.9,2.1
	C73.6,256.1,72.9,256.4,72.1,256.4z"/>
<path class="st2" d="M72.1,271.2H51.1c-0.8,0-1.6-0.3-2.1-0.9c-0.6-0.6-0.9-1.3-0.9-2.1V267c0-0.8,0.3-1.6,0.9-2.1
	c0.6-0.6,1.3-0.9,2.1-0.9h20.9c0.8,0,1.6,0.3,2.1,0.9c0.6,0.6,0.9,1.3,0.9,2.1v1.2c0,0.8-0.3,1.6-0.9,2.1
	C73.6,270.9,72.9,271.2,72.1,271.2z"/>
<path class="st2" d="M124,181.5h-20.9c-0.8,0-1.6-0.3-2.1-0.9c-0.6-0.6-0.9-1.3-0.9-2.1v-1.2c0-0.8,0.3-1.6,0.9-2.1
	c0.6-0.6,1.3-0.9,2.1-0.9H124c0.8,0,1.6,0.3,2.1,0.9c0.6,0.6,0.9,1.3,0.9,2.1v1.2c0,0.8-0.3,1.6-0.9,2.1
	C125.6,181.1,124.8,181.5,124,181.5z"/>
<path class="st0" d="M346.4,74.8H220.3c-1,0-2-0.4-2.7-1.1c-0.7-0.7-1.1-1.7-1.1-2.7V3.7c0-1,0.4-2,1.1-2.7c0.7-0.7,1.7-1.1,2.7-1.1
	h126.1c1,0,2,0.4,2.7,1.1c0.7,0.7,1.1,1.7,1.1,2.7v67.4c0,1-0.4,2-1.1,2.7C348.4,74.4,347.4,74.8,346.4,74.8z"/>
<path class="st2" d="M241.8,47.1c7.7,0,13.9-6.2,13.9-13.9s-6.2-13.9-13.9-13.9S228,25.6,228,33.2S234.2,47.1,241.8,47.1z"/>
<path class="st2" d="M331.2,20.8h-56.6c-0.6,0-1.1-0.2-1.5-0.6c-0.4-0.4-0.6-0.9-0.6-1.5c0-0.6,0.2-1.1,0.6-1.5
	c0.4-0.4,0.9-0.6,1.5-0.6h56.6c0.6,0,1.1,0.2,1.5,0.6c0.4,0.4,0.6,0.9,0.6,1.5c0,0.6-0.2,1.1-0.6,1.5
	C332.3,20.6,331.7,20.8,331.2,20.8z"/>
<path class="st2" d="M301.5,30.5h-27c-0.6,0-1.1-0.2-1.5-0.6c-0.4-0.4-0.6-0.9-0.6-1.5c0-0.6,0.2-1.1,0.6-1.5
	c0.4-0.4,0.9-0.6,1.5-0.6h27c0.6,0,1.1,0.2,1.5,0.6c0.4,0.4,0.6,0.9,0.6,1.5c0,0.6-0.2,1.1-0.6,1.5
	C302.6,30.3,302.1,30.5,301.5,30.5z"/>
<path class="st2" d="M320.5,40.2h-46c-0.6,0-1.1-0.2-1.5-0.6c-0.4-0.4-0.6-0.9-0.6-1.5s0.2-1.1,0.6-1.5c0.4-0.4,0.9-0.6,1.5-0.6h46
	c0.6,0,1.1,0.2,1.5,0.6s0.6,0.9,0.6,1.5s-0.2,1.1-0.6,1.5C321.6,40,321.1,40.2,320.5,40.2z"/>
<path class="st2" d="M331.2,49.9h-56.6c-0.6,0-1.1-0.2-1.5-0.6c-0.4-0.4-0.6-0.9-0.6-1.5s0.2-1.1,0.6-1.5c0.4-0.4,0.9-0.6,1.5-0.6
	h56.6c0.6,0,1.1,0.2,1.5,0.6c0.4,0.4,0.6,0.9,0.6,1.5s-0.2,1.1-0.6,1.5C332.3,49.6,331.7,49.9,331.2,49.9z"/>
<path class="st2" d="M329.4,67.4H320c-0.5,0-1-0.1-1.5-0.3c-0.5-0.2-0.9-0.5-1.3-0.8c-0.4-0.4-0.6-0.8-0.8-1.3
	c-0.2-0.5-0.3-1-0.3-1.5c0-0.5,0.1-1,0.3-1.5c0.2-0.5,0.5-0.9,0.8-1.3c0.4-0.4,0.8-0.6,1.3-0.8c0.5-0.2,1-0.3,1.5-0.3h9.4
	c1,0,2,0.4,2.8,1.1c0.7,0.7,1.1,1.7,1.1,2.8c0,1-0.4,2-1.1,2.8C331.4,67,330.4,67.4,329.4,67.4z"/>
<path class="st3" d="M158.8,81.1H70.8c-0.7,0-1.4-0.3-1.9-0.8c-0.5-0.5-0.8-1.2-0.8-1.9v-47c0-0.7,0.3-1.4,0.8-1.9
	c0.5-0.5,1.2-0.8,1.9-0.8h88.1c0.7,0,1.4,0.3,1.9,0.8c0.5,0.5,0.8,1.2,0.8,1.9v47c0,0.7-0.3,1.4-0.8,1.9
	C160.2,80.8,159.5,81.1,158.8,81.1z"/>
<path class="st2" d="M85.8,61.7c5.3,0,9.7-4.3,9.7-9.7c0-5.3-4.3-9.7-9.7-9.7c-5.3,0-9.7,4.3-9.7,9.7C76.1,57.4,80.5,61.7,85.8,61.7
	z"/>
<path class="st2" d="M148.2,43.4h-39.5c-0.4,0-0.8-0.2-1-0.4c-0.3-0.3-0.4-0.7-0.4-1c0-0.4,0.2-0.8,0.4-1c0.3-0.3,0.7-0.4,1-0.4
	h39.5c0.4,0,0.8,0.2,1,0.4c0.3,0.3,0.4,0.7,0.4,1c0,0.4-0.2,0.8-0.4,1C148.9,43.2,148.6,43.4,148.2,43.4z"/>
<path class="st2" d="M127.5,50.1h-18.8c-0.4,0-0.8-0.2-1-0.4c-0.3-0.3-0.4-0.7-0.4-1s0.2-0.8,0.4-1c0.3-0.3,0.7-0.4,1-0.4h18.8
	c0.4,0,0.8,0.2,1,0.4c0.3,0.3,0.4,0.7,0.4,1s-0.2,0.8-0.4,1C128.2,50,127.9,50.1,127.5,50.1z"/>
<path class="st2" d="M140.7,56.9h-32.1c-0.4,0-0.8-0.2-1-0.4c-0.3-0.3-0.4-0.7-0.4-1c0-0.4,0.2-0.8,0.4-1c0.3-0.3,0.7-0.4,1-0.4
	h32.1c0.4,0,0.8,0.2,1,0.4c0.3,0.3,0.4,0.7,0.4,1c0,0.4-0.2,0.8-0.4,1C141.5,56.7,141.1,56.9,140.7,56.9z"/>
<path class="st2" d="M148.2,63.7h-39.5c-0.4,0-0.8-0.2-1-0.4c-0.3-0.3-0.4-0.7-0.4-1c0-0.4,0.2-0.8,0.4-1c0.3-0.3,0.7-0.4,1-0.4
	h39.5c0.2,0,0.4,0,0.6,0.1c0.2,0.1,0.3,0.2,0.5,0.3c0.1,0.1,0.2,0.3,0.3,0.5c0.1,0.2,0.1,0.4,0.1,0.6c0,0.2,0,0.4-0.1,0.6
	c-0.1,0.2-0.2,0.3-0.3,0.5c-0.1,0.1-0.3,0.2-0.5,0.3C148.6,63.6,148.4,63.7,148.2,63.7z"/>
<path class="st2" d="M146.9,75.9h-6.5c-0.7,0-1.4-0.3-1.9-0.8c-0.5-0.5-0.8-1.2-0.8-1.9s0.3-1.4,0.8-1.9c0.5-0.5,1.2-0.8,1.9-0.8
	h6.5c0.7,0,1.4,0.3,1.9,0.8c0.5,0.5,0.8,1.2,0.8,1.9s-0.3,1.4-0.8,1.9C148.3,75.6,147.6,75.9,146.9,75.9z"/>
<path class="st1" d="M309.5,153.9H144.8c-1.3,0-2.5-0.5-3.5-1.4c-0.9-0.9-1.4-2.2-1.4-3.5v-88c0-1.3,0.5-2.5,1.4-3.5
	c0.9-0.9,2.2-1.4,3.5-1.4h164.7c1.3,0,2.5,0.5,3.5,1.4c0.9,0.9,1.4,2.2,1.4,3.5v88c0,1.3-0.5,2.5-1.4,3.5
	C312,153.4,310.8,153.9,309.5,153.9z"/>
<path class="st2" d="M172.9,117.7c10,0,18.1-8.1,18.1-18.1c0-10-8.1-18.1-18.1-18.1c-10,0-18.1,8.1-18.1,18.1
	C154.8,109.6,162.9,117.7,172.9,117.7z"/>
<path class="st2" d="M289.5,83.4h-73.9c-0.7,0-1.4-0.3-2-0.8c-0.5-0.5-0.8-1.2-0.8-2s0.3-1.4,0.8-2c0.5-0.5,1.2-0.8,2-0.8h73.9
	c0.4,0,0.7,0.1,1.1,0.2c0.3,0.1,0.6,0.3,0.9,0.6c0.3,0.3,0.5,0.6,0.6,0.9s0.2,0.7,0.2,1.1s-0.1,0.7-0.2,1.1s-0.3,0.6-0.6,0.9
	c-0.3,0.3-0.6,0.5-0.9,0.6C290.3,83.3,289.9,83.4,289.5,83.4z"/>
<path class="st2" d="M250.8,96h-35.2c-0.7,0-1.4-0.3-2-0.8c-0.5-0.5-0.8-1.2-0.8-2s0.3-1.4,0.8-2c0.5-0.5,1.2-0.8,2-0.8h35.2
	c0.7,0,1.4,0.3,2,0.8c0.5,0.5,0.8,1.2,0.8,2s-0.3,1.4-0.8,2C252.3,95.8,251.6,96,250.8,96z"/>
<path class="st2" d="M275.6,108.7h-60c-0.7,0-1.4-0.3-2-0.8c-0.5-0.5-0.8-1.2-0.8-2c0-0.7,0.3-1.4,0.8-2s1.2-0.8,2-0.8h60
	c0.7,0,1.4,0.3,2,0.8c0.5,0.5,0.8,1.2,0.8,2c0,0.7-0.3,1.4-0.8,2C277.1,108.4,276.4,108.7,275.6,108.7z"/>
<path class="st2" d="M289.5,121.3h-73.9c-0.7,0-1.4-0.3-2-0.8c-0.5-0.5-0.8-1.2-0.8-2c0-0.7,0.3-1.4,0.8-2c0.5-0.5,1.2-0.8,2-0.8
	h73.9c0.7,0,1.4,0.3,2,0.8c0.5,0.5,0.8,1.2,0.8,2c0,0.7-0.3,1.4-0.8,2C291,121.1,290.3,121.3,289.5,121.3z"/>
<path class="st2" d="M287.2,144.2H275c-0.7,0-1.3-0.1-1.9-0.4c-0.6-0.3-1.2-0.6-1.7-1.1c-0.5-0.5-0.8-1-1.1-1.6
	c-0.3-0.6-0.4-1.3-0.4-1.9c0-0.7,0.1-1.3,0.4-1.9c0.3-0.6,0.6-1.2,1.1-1.6c0.5-0.5,1-0.8,1.7-1.1c0.6-0.3,1.3-0.4,1.9-0.4h12.2
	c0.7,0,1.3,0.1,1.9,0.4c0.6,0.3,1.2,0.6,1.7,1.1c0.5,0.5,0.8,1,1.1,1.6c0.3,0.6,0.4,1.3,0.4,1.9c0,0.7-0.1,1.3-0.4,1.9
	c-0.3,0.6-0.6,1.2-1.1,1.6c-0.5,0.5-1,0.8-1.7,1.1C288.5,144.1,287.9,144.2,287.2,144.2z"/>
</svg>
