<svg width="148" height="148" viewBox="0 0 148 148" fill="none" xmlns="http://www.w3.org/2000/svg">
<rect width="148" height="148" rx="74" fill="#F2F2F2"/>
<path d="M75.6303 108.252C92.5939 108.252 106.346 94.5301 106.346 77.6031C106.346 60.6761 92.5939 46.9541 75.6303 46.9541C58.6667 46.9541 44.915 60.6761 44.915 77.6031C44.915 94.5301 58.6667 108.252 75.6303 108.252Z" fill="#2F2E41"/>
<path d="M70.965 101.657H61.6338V118.339H70.965V101.657Z" fill="#2F2E41"/>
<path d="M89.6271 101.657H80.2959V118.339H89.6271V101.657Z" fill="#2F2E41"/>
<path d="M69.4098 121.443C73.7044 121.443 77.1858 120.14 77.1858 118.533C77.1858 116.926 73.7044 115.623 69.4098 115.623C65.1152 115.623 61.6338 116.926 61.6338 118.533C61.6338 120.14 65.1152 121.443 69.4098 121.443Z" fill="#2F2E41"/>
<path d="M88.0719 121.054C92.3665 121.054 95.848 119.752 95.848 118.145C95.848 116.538 92.3665 115.235 88.0719 115.235C83.7773 115.235 80.2959 116.538 80.2959 118.145C80.2959 119.752 83.7773 121.054 88.0719 121.054Z" fill="#2F2E41"/>
<path d="M108.73 64.2101C115.382 57.5674 119.08 50.4932 116.99 48.4095C114.9 46.3258 107.813 50.0215 101.162 56.6642C94.5096 63.3069 90.8113 70.3811 92.9012 72.4648C94.991 74.5486 102.078 70.8528 108.73 64.2101Z" fill="#2F2E41"/>
<path d="M50.8728 74.5993C52.9626 72.5156 49.2643 65.4414 42.6124 58.7987C35.9605 52.156 28.8739 48.4602 26.784 50.544C24.6942 52.6277 28.3925 59.7019 35.0444 66.3446C41.6963 72.9873 48.7829 76.6831 50.8728 74.5993Z" fill="#2F2E41"/>
<path d="M74.3375 83.7346C80.1351 83.7346 84.8351 79.0448 84.8351 73.2596C84.8351 67.4745 80.1351 62.7847 74.3375 62.7847C68.5398 62.7847 63.8398 67.4745 63.8398 73.2596C63.8398 79.0448 68.5398 83.7346 74.3375 83.7346Z" fill="white"/>
<path d="M74.3381 76.7509C76.2707 76.7509 77.8373 75.1877 77.8373 73.2593C77.8373 71.3309 76.2707 69.7676 74.3381 69.7676C72.4055 69.7676 70.8389 71.3309 70.8389 73.2593C70.8389 75.1877 72.4055 76.7509 74.3381 76.7509Z" fill="#3F3D56"/>
<path d="M82.6713 92.632C82.9956 94.4095 82.599 96.2428 81.5686 97.7285C80.5383 99.2142 78.9588 100.231 77.1774 100.554C75.3961 100.878 73.5589 100.482 72.07 99.4539C70.581 98.4258 69.5624 96.8496 69.2381 95.0721L69.2357 95.059C68.564 91.3569 71.4326 90.0468 75.1428 89.3766C78.8529 88.7064 81.9997 88.9299 82.6713 92.632Z" fill="white"/>
<path d="M74.8399 57.5C69.3824 57.4944 63.9569 56.6673 58.7467 55.0467C58.3847 54.9302 58.0689 54.7024 57.8445 54.3959C57.62 54.0895 57.4984 53.7201 57.4971 53.3406V40.8651C57.4976 40.3934 57.6857 39.9412 58.0199 39.6076C58.3542 39.2741 58.8073 39.0865 59.28 39.0859H90.6605C91.1332 39.0865 91.5864 39.2741 91.9206 39.6076C92.2549 39.9412 92.4429 40.3934 92.4435 40.8651V53.3332C92.4436 53.716 92.3204 54.0887 92.0919 54.3962C91.8635 54.7037 91.5419 54.9297 91.1748 55.0408C85.8801 56.655 80.3762 57.4836 74.8399 57.5Z" fill="#6D597A"/>
<path opacity="0.2" d="M92.0867 40.8652V42.9503L75.1056 48.8927C74.7882 49.0019 74.4425 48.9969 74.1284 48.8784L57.8535 42.7796V40.8652C57.8546 40.4881 58.0052 40.1267 58.2725 39.86C58.5398 39.5933 58.9019 39.443 59.2799 39.4419H90.6603C91.0383 39.443 91.4005 39.5933 91.6677 39.86C91.935 40.1267 92.0856 40.4881 92.0867 40.8652Z" fill="black"/>
<path d="M74.6298 46.481C74.4158 46.4811 74.2036 46.4429 74.0031 46.3681L49.6825 37.2556C49.3387 37.1267 49.0431 36.895 48.8362 36.5921C48.6293 36.2893 48.5211 35.9301 48.5266 35.5636C48.532 35.1971 48.6507 34.8413 48.8665 34.5446C49.0823 34.248 49.3846 34.0251 49.7322 33.9065L72.6152 26.095C72.9849 25.97 73.3853 25.9683 73.7561 26.0901L99.2955 34.5851C99.6483 34.7025 99.9555 34.9269 100.174 35.2271C100.393 35.5273 100.512 35.8882 100.515 36.2593C100.517 36.6303 100.404 36.993 100.19 37.2965C99.9761 37.6 99.6724 37.8292 99.3215 37.9519L75.2194 46.3813C75.0299 46.4474 74.8306 46.4812 74.6298 46.481Z" fill="#6D597A"/>
<path d="M52.5042 45.8463H51.791V35.5273H73.5434V36.239H52.5042V45.8463Z" fill="#3F3D56"/>
<path d="M52.1471 47.9819C52.9349 47.9819 53.5735 47.3446 53.5735 46.5586C53.5735 45.7725 52.9349 45.1353 52.1471 45.1353C51.3593 45.1353 50.7207 45.7725 50.7207 46.5586C50.7207 47.3446 51.3593 47.9819 52.1471 47.9819Z" fill="#3F3D56"/>
</svg>
